<svg width="56" height="56" viewBox="0 0 56 56" fill="none" xmlns="http://www.w3.org/2000/svg">
<path fill-rule="evenodd" clip-rule="evenodd" d="M28 52C41.2548 52 52 41.2548 52 28C52 14.7452 41.2548 4 28 4C14.7452 4 4 14.7452 4 28C4 41.2548 14.7452 52 28 52ZM28 56C43.464 56 56 43.464 56 28C56 12.536 43.464 0 28 0C12.536 0 0 12.536 0 28C0 43.464 12.536 56 28 56Z" fill="#141417"/>
<path d="M21 16.7341C21.4216 16.3621 21.8804 16.0087 22.3763 15.6739C22.8847 15.3391 23.4303 15.0478 24.0131 14.7998C24.5958 14.5518 25.2282 14.3596 25.9102 14.2232C26.5922 14.0744 27.3299 14 28.1235 14C29.2023 14 30.1818 14.1488 31.0622 14.4464C31.9549 14.744 32.7175 15.1718 33.3499 15.7297C33.9823 16.2753 34.472 16.9387 34.8192 17.7198C35.1664 18.501 35.34 19.3752 35.34 20.3423C35.34 21.2847 35.2036 22.1031 34.9308 22.7974C34.658 23.4794 34.317 24.0746 33.9079 24.583C33.4987 25.0913 33.0461 25.5315 32.5501 25.9035C32.0665 26.2755 31.6078 26.6289 31.1738 26.9637C30.7398 27.286 30.3616 27.6084 30.0392 27.9308C29.7292 28.2408 29.5432 28.5942 29.4812 28.991L29.0535 31.7065H25.9102L25.594 28.6748C25.5196 28.092 25.6002 27.5836 25.8358 27.1496C26.0838 26.7033 26.4062 26.3003 26.803 25.9407C27.2121 25.5687 27.6647 25.2153 28.1607 24.8805C28.6567 24.5334 29.1217 24.1614 29.5556 23.7646C29.9896 23.3554 30.3492 22.9028 30.6344 22.4068C30.932 21.8985 31.0808 21.2971 31.0808 20.6027C31.0808 20.1563 30.994 19.7596 30.8204 19.4124C30.6592 19.0528 30.4298 18.749 30.1322 18.501C29.8346 18.2406 29.475 18.0422 29.0535 17.9058C28.6443 17.7694 28.1979 17.7012 27.7143 17.7012C27.0075 17.7012 26.4062 17.7818 25.9102 17.943C25.4266 18.0918 25.0112 18.2654 24.664 18.4638C24.3293 18.6498 24.0441 18.8234 23.8085 18.9846C23.5729 19.1334 23.3621 19.2078 23.1761 19.2078C22.7297 19.2078 22.4073 19.0218 22.2089 18.6498L21 16.7341ZM24.5153 38.6626C24.5153 38.2782 24.5835 37.9124 24.7198 37.5652C24.8686 37.218 25.067 36.9204 25.315 36.6724C25.563 36.4245 25.8606 36.2261 26.2078 36.0773C26.555 35.9285 26.927 35.8541 27.3237 35.8541C27.7205 35.8541 28.0863 35.9285 28.4211 36.0773C28.7683 36.2261 29.0659 36.4245 29.3139 36.6724C29.5742 36.9204 29.7788 37.218 29.9276 37.5652C30.0764 37.9124 30.1508 38.2782 30.1508 38.6626C30.1508 39.0593 30.0764 39.4313 29.9276 39.7785C29.7788 40.1133 29.5742 40.4047 29.3139 40.6527C29.0659 40.9007 28.7683 41.0929 28.4211 41.2293C28.0863 41.3781 27.7205 41.4524 27.3237 41.4524C26.927 41.4524 26.555 41.3781 26.2078 41.2293C25.8606 41.0929 25.563 40.9007 25.315 40.6527C25.067 40.4047 24.8686 40.1133 24.7198 39.7785C24.5835 39.4313 24.5153 39.0593 24.5153 38.6626Z" fill="#141417"/>
</svg>
