<svg width="56" height="56" viewBox="0 0 56 56" fill="none" xmlns="http://www.w3.org/2000/svg">
<path fill-rule="evenodd" clip-rule="evenodd" d="M28 52C41.2548 52 52 41.2548 52 28C52 14.7452 41.2548 4 28 4C14.7452 4 4 14.7452 4 28C4 41.2548 14.7452 52 28 52ZM28 56C43.464 56 56 43.464 56 28C56 12.536 43.464 0 28 0C12.536 0 0 12.536 0 28C0 43.464 12.536 56 28 56Z" fill="#141417"/>
<path d="M20.5 20.5C20.5 22.433 18.933 24 17 24C15.067 24 13.5 22.433 13.5 20.5C13.5 18.567 15.067 17 17 17C18.933 17 20.5 18.567 20.5 20.5Z" fill="#141417"/>
<path d="M41.5 20.5C41.5 22.433 39.933 24 38 24C36.067 24 34.5 22.433 34.5 20.5C34.5 18.567 36.067 17 38 17C39.933 17 41.5 18.567 41.5 20.5Z" fill="#141417"/>
<path fill-rule="evenodd" clip-rule="evenodd" d="M18.6988 40.056C18.1195 40.988 16.8958 41.2798 15.9576 40.7067C15.015 40.1309 14.7177 38.8999 15.2936 37.9574L16.972 38.9827C15.2936 37.9573 15.2941 37.9564 15.2947 37.9555L15.2959 37.9535L15.2986 37.9492L15.3048 37.9392L15.3209 37.9136C15.3332 37.8942 15.3487 37.8701 15.3676 37.8415C15.4053 37.7844 15.4563 37.7095 15.5209 37.6195C15.65 37.4395 15.8343 37.1978 16.0768 36.9155C16.5611 36.3518 17.2839 35.6188 18.2709 34.8906C20.262 33.4217 23.2951 32 27.5003 32C31.7054 32 34.7386 33.4217 36.7297 34.8906C37.7167 35.6188 38.4395 36.3518 38.9237 36.9155C39.1663 37.1978 39.3506 37.4395 39.4797 37.6195C39.5443 37.7095 39.5952 37.7844 39.633 37.8415C39.6518 37.8701 39.6674 37.8942 39.6797 37.9136L39.6958 37.9392L39.702 37.9492L39.7046 37.9535L39.7059 37.9555C39.7064 37.9564 39.707 37.9573 38.0286 38.9827L39.707 37.9574C40.2828 38.8999 39.9855 40.1309 39.0429 40.7067C38.1048 41.2798 36.8811 40.988 36.3018 40.056C36.3014 40.0554 36.3009 40.0547 36.3004 40.0538C36.2991 40.0519 36.2975 40.0494 36.2954 40.0462C36.2847 40.03 36.2628 39.9975 36.2293 39.9508C36.1623 39.8574 36.0498 39.7084 35.8896 39.522C35.5685 39.1482 35.0623 38.6312 34.355 38.1094C32.9574 37.0783 30.7406 36 27.5003 36C24.26 36 22.0432 37.0783 20.6456 38.1094C19.9383 38.6312 19.4321 39.1482 19.1109 39.522C18.9508 39.7084 18.8383 39.8574 18.7712 39.9508C18.7378 39.9975 18.7159 40.03 18.7052 40.0462C18.7021 40.0509 18.7 40.0542 18.6988 40.056C18.6988 40.056 18.6988 40.056 18.6988 40.056ZM36.3029 40.0577L36.3029 40.0577L36.3029 40.0577ZM36.2946 40.0444C36.2946 40.0444 36.2946 40.0444 36.2946 40.0444L36.2955 40.0458C36.2952 40.0453 36.2949 40.0449 36.2946 40.0444Z" fill="#141417"/>
</svg>
