<svg width="12" height="16" viewBox="0 0 12 16" fill="none" xmlns="http://www.w3.org/2000/svg">
<path d="M4.44405 10.4222C4.44405 9.9037 4.52554 9.44444 4.6885 9.04444C4.86628 8.64444 5.08109 8.28889 5.33294 7.97778C5.59961 7.66667 5.88109 7.37778 6.17739 7.11111C6.47368 6.84444 6.74776 6.59259 6.99961 6.35556C7.26628 6.1037 7.48109 5.84444 7.64405 5.57778C7.82183 5.31111 7.91072 5.01481 7.91072 4.68889C7.91072 4.15556 7.6885 3.72593 7.24405 3.4C6.81442 3.07407 6.23665 2.91111 5.51072 2.91111C4.81442 2.91111 4.1922 3.05926 3.64405 3.35555C3.53509 3.41151 3.42993 3.47215 3.32857 3.53747C2.63481 3.98459 1.73667 4.23175 1.02481 3.81405V3.81405C0.249426 3.35908 0.00552249 2.3274 0.685629 1.73946C1.09073 1.38926 1.55094 1.08352 2.06628 0.822222C3.11813 0.274074 4.3922 0 5.8885 0C6.99961 0 7.97739 0.162963 8.82183 0.488888C9.66628 0.799999 10.3255 1.25926 10.7996 1.86667C11.2885 2.47407 11.5329 3.22222 11.5329 4.11111C11.5329 4.68889 11.4441 5.2 11.2663 5.64444C11.0885 6.08889 10.8589 6.47407 10.5774 6.8C10.2959 7.12593 9.9922 7.42963 9.66628 7.71111C9.35517 7.99259 9.05887 8.26667 8.77739 8.53333C8.49591 8.8 8.25887 9.08148 8.06628 9.37778C7.8885 9.67407 7.79961 10.0222 7.79961 10.4222H4.44405ZM6.13294 16C5.51072 16 4.99961 15.8 4.59961 15.4C4.19961 15 3.99961 14.5259 3.99961 13.9778C3.99961 13.4148 4.19961 12.9481 4.59961 12.5778C4.99961 12.1926 5.51072 12 6.13294 12C6.76998 12 7.28109 12.1926 7.66628 12.5778C8.06628 12.9481 8.26628 13.4148 8.26628 13.9778C8.26628 14.5259 8.06628 15 7.66628 15.4C7.28109 15.8 6.76998 16 6.13294 16Z" fill="#141417"/>
</svg>
