<svg width="17" height="16" viewBox="0 0 17 16" fill="none" xmlns="http://www.w3.org/2000/svg">
<path d="M15.9187 0.769072L12.6688 0.0190875C12.3157 -0.0621608 11.9532 0.12221 11.8095 0.453453L10.3095 3.95338C10.1782 4.25962 10.2657 4.61899 10.5251 4.82836L12.4188 6.37833C11.2938 8.77515 9.32826 10.7689 6.88144 11.9157L5.33147 10.022C5.11898 9.76263 4.76273 9.67513 4.45649 9.80638L0.956566 11.3063C0.622198 11.4532 0.437827 11.8157 0.519075 12.1688L1.26906 15.4188C1.34718 15.7563 1.64718 16 2.00029 16C10.0032 16 16.5 9.51576 16.5 1.50031C16.5 1.15031 16.2594 0.847195 15.9187 0.769072Z" fill="#2C689B"/>
</svg>
