<svg width="13" height="14" viewBox="0 0 13 14" fill="none" xmlns="http://www.w3.org/2000/svg">
<path d="M12.435 1.21487L9.83503 0.614879C9.55253 0.549881 9.26254 0.697378 9.14754 0.962372L7.94757 3.76231C7.84257 4.00731 7.91257 4.2948 8.12006 4.4623L9.63503 5.70227C8.73505 7.61973 7.16259 9.2147 5.20513 10.1322L3.96515 8.61721C3.79516 8.40972 3.51016 8.33972 3.26517 8.44471L0.465228 9.64469C0.197734 9.76219 0.050237 10.0522 0.115236 10.3347L0.715223 12.9346C0.777722 13.2046 1.01772 13.3996 1.30021 13.3996C7.70257 13.3996 12.9 8.21222 12.9 1.79985C12.9 1.51986 12.7075 1.27737 12.435 1.21487Z" fill="black"/>
</svg>
