<svg width="17" height="17" viewBox="0 0 17 17" fill="none" xmlns="http://www.w3.org/2000/svg">
<path fill-rule="evenodd" clip-rule="evenodd" d="M16.5 8.56836C16.5 12.9866 12.9183 16.5684 8.5 16.5684C4.08172 16.5684 0.5 12.9866 0.5 8.56836C0.5 4.15008 4.08172 0.568359 8.5 0.568359C12.9183 0.568359 16.5 4.15008 16.5 8.56836ZM8.78665 6.47429C8.00853 6.79794 6.45339 7.4678 4.12123 8.48389C3.74252 8.63449 3.54414 8.78182 3.52608 8.92588C3.49556 9.16934 3.80044 9.26521 4.21561 9.39576C4.27209 9.41351 4.3306 9.43191 4.39059 9.45142C4.79906 9.58419 5.34852 9.73953 5.63416 9.7457C5.89326 9.7513 6.18245 9.64448 6.50173 9.42524C8.68074 7.95434 9.80555 7.21088 9.87617 7.19485C9.92599 7.18355 9.99503 7.16933 10.0418 7.2109C10.0886 7.25248 10.084 7.33122 10.079 7.35234C10.0488 7.4811 8.85206 8.59373 8.23272 9.16952C8.03964 9.34903 7.90268 9.47636 7.87468 9.50543C7.81197 9.57057 7.74805 9.63219 7.68662 9.69141C7.30714 10.0572 7.02257 10.3316 7.70237 10.7795C8.02906 10.9948 8.29047 11.1728 8.55127 11.3504C8.83608 11.5444 9.12016 11.7379 9.48771 11.9788C9.58135 12.0402 9.67078 12.1039 9.75789 12.166C10.0893 12.4023 10.3871 12.6146 10.755 12.5808C10.9688 12.5611 11.1896 12.3601 11.3017 11.7606C11.5668 10.3438 12.0877 7.27398 12.2081 6.00899C12.2187 5.89816 12.2054 5.75632 12.1947 5.69405C12.1841 5.63179 12.1618 5.54308 12.0809 5.4774C11.985 5.39963 11.8371 5.38323 11.7709 5.38439C11.47 5.38969 11.0083 5.55022 8.78665 6.47429Z" fill="#2C3044"/>
</svg>
