<svg width="17" height="18" viewBox="0 0 17 18" fill="none" xmlns="http://www.w3.org/2000/svg">
<path d="M14.6939 2.21322C14.2747 1.82654 12.5805 0.597166 8.80674 0.580464C8.80674 0.580464 4.35655 0.312217 2.18715 2.30129C0.979532 3.50865 0.554715 5.27528 0.509904 7.46554C0.465093 9.6558 0.407117 13.7605 4.36541 14.8735H4.36921L4.36667 16.5718C4.36667 16.5718 4.34136 17.2593 4.79428 17.3995C5.34213 17.5696 5.66366 17.047 6.1867 16.4837C6.4738 16.1744 6.87026 15.7202 7.169 15.373C9.87613 15.6008 11.9582 15.0802 12.1946 15.0033C12.7412 14.8261 15.8342 14.4301 16.3372 10.3257C16.8565 6.09521 16.0861 3.41932 14.6939 2.21322ZM15.1527 10.0222C14.7281 13.4492 12.2195 13.6646 11.7569 13.8129C11.5602 13.8761 9.73157 14.3309 7.43204 14.1808C7.43204 14.1808 5.71859 16.2471 5.1834 16.7843C5.09985 16.8683 5.00162 16.9023 4.93605 16.8856C4.8439 16.863 4.81858 16.754 4.81959 16.5945C4.82111 16.3668 4.83428 13.7724 4.83428 13.7724C4.83428 13.7724 4.83225 13.7724 4.83428 13.7724C1.48587 12.8431 1.68106 9.3496 1.71904 7.5202C1.75701 5.69081 2.10082 4.19218 3.1221 3.18423C4.95706 1.52287 8.73712 1.77112 8.73712 1.77112C11.9293 1.78504 13.459 2.74592 13.8137 3.06782C14.9914 4.07577 15.5914 6.48771 15.1527 10.0212V10.0222Z" fill="#2C3044"/>
<path fill-rule="evenodd" clip-rule="evenodd" d="M8.7813 6.03602C8.79004 5.86847 8.93295 5.73973 9.1005 5.74847C9.5561 5.77223 9.947 5.91091 10.2285 6.20178C10.5085 6.49121 10.6405 6.89043 10.6635 7.35498C10.6719 7.52255 10.5428 7.66514 10.3752 7.67345C10.2076 7.68177 10.065 7.55267 10.0567 7.3851C10.0383 7.01303 9.93693 6.77424 9.79182 6.62426C9.64811 6.47574 9.42204 6.37363 9.06885 6.35521C8.90131 6.34647 8.77257 6.20357 8.7813 6.03602Z" fill="#2C3044"/>
<path fill-rule="evenodd" clip-rule="evenodd" d="M8.45792 4.88515C8.47016 4.71782 8.61573 4.5921 8.78305 4.60434C9.69696 4.6712 10.4418 4.98453 10.9861 5.57842L10.9862 5.57853C11.5234 6.16519 11.7772 6.89475 11.7588 7.74389C11.7552 7.91163 11.6163 8.04466 11.4485 8.04103C11.2808 8.03739 11.1478 7.89847 11.1514 7.73074C11.1668 7.02101 10.9587 6.44815 10.5381 5.98881C10.1204 5.53306 9.53364 5.26844 8.73873 5.21029C8.5714 5.19805 8.44567 5.05248 8.45792 4.88515Z" fill="#2C3044"/>
<path fill-rule="evenodd" clip-rule="evenodd" d="M8.08094 3.79776C8.08211 3.62999 8.21906 3.49493 8.38683 3.4961C9.64702 3.50488 10.7168 3.92508 11.5753 4.76158C12.4437 5.60784 12.8692 6.75735 12.88 8.17251C12.8812 8.34028 12.7463 8.47733 12.5785 8.4786C12.4107 8.47988 12.2737 8.34491 12.2724 8.17714C12.2626 6.88723 11.8794 5.90629 11.1512 5.19672C10.413 4.47739 9.49713 4.11141 8.3826 4.10365C8.21483 4.10249 8.07977 3.96553 8.08094 3.79776Z" fill="#2C3044"/>
<path d="M9.12697 10.2266C9.12697 10.2266 9.42698 10.2519 9.5885 10.053L9.90344 9.65693C10.0553 9.46055 10.4219 9.33529 10.7809 9.53521C11.0499 9.68857 11.3111 9.85529 11.5635 10.0348C11.8017 10.2099 12.2896 10.6168 12.2911 10.6168C12.5235 10.8129 12.5772 11.1009 12.4189 11.4046C12.4189 11.4064 12.4177 11.4094 12.4177 11.4109C12.2434 11.7129 12.0221 11.9852 11.7622 12.2177C11.7592 12.2192 11.7592 12.2207 11.7564 12.2222C11.5306 12.4108 11.3087 12.5181 11.0908 12.5439C11.0587 12.5495 11.0261 12.5515 10.9936 12.5499C10.8975 12.5509 10.8019 12.5362 10.7105 12.5064L10.7035 12.496C10.3678 12.4014 9.80724 12.1645 8.8738 11.6498C8.33364 11.3554 7.81939 11.0159 7.33656 10.6348C7.09456 10.4438 6.86371 10.2392 6.64516 10.0218L6.62187 9.99856L6.59858 9.97528L6.57529 9.95175C6.56744 9.94416 6.55984 9.93631 6.55199 9.92847C6.33455 9.71001 6.12982 9.47926 5.93882 9.23735C5.5576 8.75478 5.2179 8.24083 4.92336 7.70101C4.40842 6.76771 4.17145 6.20794 4.07677 5.87187L4.06639 5.86478C4.03671 5.77344 4.02208 5.67789 4.02309 5.58186C4.02132 5.54935 4.02328 5.51675 4.02892 5.48468C4.05609 5.26739 4.16352 5.04553 4.3512 4.81913C4.35272 4.81634 4.35424 4.81634 4.35576 4.81331C4.58824 4.55349 4.8607 4.3324 5.16286 4.15838C5.16438 4.15838 5.16742 4.15686 5.16919 4.15686C5.47299 3.9987 5.7611 4.05235 5.95705 4.28339C5.95857 4.28491 6.3649 4.77256 6.53934 5.0107C6.71889 5.26319 6.88569 5.5245 7.03909 5.79367C7.23909 6.15226 7.11378 6.51946 6.91732 6.67079L6.52111 6.9856C6.3211 7.14705 6.34743 7.44693 6.34743 7.44693C6.34743 7.44693 6.93428 9.66705 9.12697 10.2266Z" fill="#2C3044"/>
</svg>
