<svg width="17" height="17" viewBox="0 0 17 17" fill="none" xmlns="http://www.w3.org/2000/svg">
<path fill-rule="evenodd" clip-rule="evenodd" d="M14.1687 2.90461C12.6648 1.3988 10.6647 0.569123 8.53362 0.568359C4.14227 0.568359 0.568376 4.14187 0.566848 8.53436C0.566084 9.93855 0.933176 11.3091 1.63031 12.517L0.5 16.6455L4.72327 15.5378C5.88681 16.1726 7.19703 16.5069 8.53018 16.5072H8.53362C12.9242 16.5072 16.4985 12.9334 16.5 8.54086C16.5008 6.41203 15.673 4.41079 14.1687 2.90499V2.90461ZM8.53362 15.1619H8.53094C7.34296 15.1615 6.17751 14.8422 5.16065 14.239L4.91885 14.0954L2.41262 14.7528L3.08148 12.3092L2.9241 12.0586C2.26135 11.0043 1.91107 9.78576 1.91183 8.53474C1.91336 4.88407 4.88371 1.91373 8.53629 1.91373C10.3049 1.91449 11.9673 2.60398 13.2176 3.85576C14.4678 5.10716 15.1558 6.7711 15.155 8.54009C15.1535 12.1911 12.1831 15.1615 8.53362 15.1615V15.1619ZM12.1656 10.2029C11.9666 10.1032 10.9879 9.62189 10.8053 9.55542C10.6227 9.48895 10.4902 9.45572 10.3576 9.65512C10.2251 9.85452 9.84346 10.303 9.72733 10.4355C9.61121 10.5685 9.49508 10.5849 9.29607 10.4852C9.09705 10.3855 8.45569 10.1754 7.69515 9.49736C7.10345 8.96945 6.70389 8.31777 6.58776 8.11838C6.47164 7.91898 6.57554 7.81126 6.67486 7.71232C6.76424 7.62294 6.87387 7.47969 6.97357 7.36357C7.07327 7.24744 7.10612 7.16417 7.17259 7.03162C7.23905 6.89868 7.20582 6.78256 7.15616 6.68286C7.1065 6.58316 6.70847 5.60336 6.5423 5.20494C6.38072 4.81684 6.21647 4.86956 6.09461 4.86306C5.97849 4.85733 5.84594 4.85619 5.71301 4.85619C5.58007 4.85619 5.36463 4.90585 5.18204 5.10525C4.99945 5.30464 4.48529 5.78633 4.48529 6.76575C4.48529 7.74517 5.19847 8.69212 5.29817 8.82506C5.39787 8.95799 6.70198 10.9684 8.69864 11.8309C9.17345 12.0361 9.54436 12.1587 9.83352 12.2504C10.3102 12.402 10.7442 12.3806 11.0872 12.3294C11.4696 12.2721 12.2649 11.8477 12.4307 11.3829C12.5965 10.918 12.5965 10.5192 12.5468 10.4363C12.4971 10.3534 12.3642 10.3034 12.1652 10.2037L12.1656 10.2029Z" fill="#2C3044"/>
</svg>
